<svg width="26" height="20" viewBox="0 0 26 20" fill="none" xmlns="http://www.w3.org/2000/svg">
<path d="M20.5 11.25V8.75H25.5V11.25H20.5ZM22 20L18 17L19.5 15L23.5 18L22 20ZM19.5 5L18 3L22 0L23.5 2L19.5 5ZM4.25 18.75V13.75H3C2.3125 13.75 1.72417 13.505 1.235 13.015C0.745 12.5258 0.5 11.9375 0.5 11.25V8.75C0.5 8.0625 0.745 7.47375 1.235 6.98375C1.72417 6.49458 2.3125 6.25 3 6.25H8L14.25 2.5V17.5L8 13.75H6.75V18.75H4.25ZM15.5 14.1875V5.8125C16.0625 6.3125 16.5158 6.92208 16.86 7.64125C17.2033 8.35958 17.375 9.14583 17.375 10C17.375 10.8542 17.2033 11.6404 16.86 12.3588C16.5158 13.0779 16.0625 13.6875 15.5 14.1875ZM3 8.75V11.25H8.6875L11.75 13.0625V6.9375L8.6875 8.75H3Z" fill="white"/>
</svg>
