<svg width="22" height="22" viewBox="0 0 22 22" fill="none" xmlns="http://www.w3.org/2000/svg">
<path d="M20.7778 22H3.66667C2.69421 22 1.76158 21.6523 1.07394 21.0335C0.386309 20.4146 0 19.5752 0 18.7V3.3C0 2.42479 0.386309 1.58542 1.07394 0.966548C1.76158 0.347678 2.69421 0 3.66667 0H20.7778C21.1019 0 21.4128 0.115892 21.642 0.322182C21.8712 0.528472 22 0.808262 22 1.1V20.9C22 21.1917 21.8712 21.4715 21.642 21.6778C21.4128 21.8841 21.1019 22 20.7778 22ZM19.5556 19.8V17.6H3.66667C3.34251 17.6 3.03164 17.7159 2.80243 17.9222C2.57321 18.1285 2.44444 18.4083 2.44444 18.7C2.44444 18.9917 2.57321 19.2715 2.80243 19.4778C3.03164 19.6841 3.34251 19.8 3.66667 19.8H19.5556ZM2.44444 15.587C2.827 15.466 3.23889 15.4 3.66667 15.4H19.5556V2.2H3.66667C3.34251 2.2 3.03164 2.31589 2.80243 2.52218C2.57321 2.72847 2.44444 3.00826 2.44444 3.3V15.587ZM11 8.8C10.3517 8.8 9.72994 8.56821 9.27152 8.15563C8.8131 7.74305 8.55556 7.18348 8.55556 6.6C8.55556 6.01652 8.8131 5.45694 9.27152 5.04436C9.72994 4.63178 10.3517 4.4 11 4.4C11.6483 4.4 12.2701 4.63178 12.7285 5.04436C13.1869 5.45694 13.4444 6.01652 13.4444 6.6C13.4444 7.18348 13.1869 7.74305 12.7285 8.15563C12.2701 8.56821 11.6483 8.8 11 8.8ZM7.33333 13.2C7.33333 12.3248 7.71964 11.4854 8.40727 10.8665C9.09491 10.2477 10.0275 9.9 11 9.9C11.9725 9.9 12.9051 10.2477 13.5927 10.8665C14.2804 11.4854 14.6667 12.3248 14.6667 13.2H7.33333Z" fill="white"/>
</svg>
