<svg width="50" height="50" viewBox="0 0 50 50" fill="none" xmlns="http://www.w3.org/2000/svg">
<g clip-path="url(#clip0_387_248)">
<path fill-rule="evenodd" clip-rule="evenodd" d="M18.8825 3.98193H30.9658C32.6226 3.98284 34.2112 4.64151 35.3825 5.81318L43.9262 14.3548C44.5069 14.9353 44.9675 15.6245 45.2817 16.3831C45.5959 17.1416 45.7576 17.9546 45.7575 18.7757V30.8548C45.7576 31.6759 45.5959 32.4889 45.2817 33.2475C44.9675 34.006 44.5069 34.6952 43.9262 35.2757L35.3846 43.8173C34.8041 44.398 34.1149 44.8586 33.3563 45.1728C32.5978 45.487 31.7848 45.6487 30.9637 45.6486H18.8846C18.0635 45.6487 17.2505 45.487 16.492 45.1728C15.7334 44.8586 15.0442 44.398 14.4637 43.8173L5.92207 35.2757C5.34141 34.6952 4.88082 34.006 4.56661 33.2475C4.2524 32.4889 4.09072 31.6759 4.09082 30.8548V18.7757C4.09072 17.9546 4.2524 17.1416 4.56661 16.3831C4.88082 15.6245 5.34141 14.9353 5.92207 14.3548L14.4637 5.81318C15.0442 5.23253 15.7334 4.77194 16.492 4.45772C17.2505 4.14351 18.0614 3.98184 18.8825 3.98193Z" fill="white"/>
</g>
<path d="M34.2674 21.995C33.9373 22.1533 33.6034 22.1735 33.2658 22.0557C32.9281 21.9378 32.6758 21.7129 32.5088 21.3811C32.3406 21.0488 32.3114 20.7164 32.4212 20.384C32.5309 20.0516 32.7507 19.8068 33.0804 19.6496L35.4106 18.5321C35.7407 18.3737 36.0746 18.3535 36.4122 18.4714C36.7499 18.5893 37.0022 18.8141 37.1692 19.146C37.3374 19.4783 37.3666 19.8106 37.2568 20.1431C37.1471 20.4755 36.9273 20.7203 36.5976 20.8775L34.2674 21.995ZM37.3668 29.8356L34.7904 29.3224C34.4197 29.2573 34.1357 29.0777 33.9386 28.7836C33.7415 28.4895 33.6708 28.1591 33.7265 27.7924C33.7822 27.4256 33.9555 27.1482 34.2464 26.9601C34.5373 26.772 34.8682 26.7105 35.2389 26.7755L37.8153 27.2888C38.1861 27.3538 38.47 27.5334 38.6671 27.8275C38.8643 28.1216 38.935 28.4521 38.8793 28.8188C38.8236 29.1856 38.6503 29.463 38.3593 29.6511C38.0684 29.8392 37.7376 29.9007 37.3668 29.8356ZM29.7786 15.9866C29.6057 16.3124 29.354 16.5303 29.0235 16.6402C28.693 16.7501 28.3615 16.7148 28.0288 16.5343C27.6961 16.3538 27.4701 16.0979 27.3506 15.7665C27.2312 15.4352 27.258 15.1066 27.4309 14.7808L28.5828 12.4795C28.7558 12.1537 29.0075 11.9358 29.338 11.8259C29.6684 11.716 30 11.7513 30.3327 11.9318C30.6654 12.1123 30.8914 12.3682 31.0108 12.6995C31.1303 13.0309 31.1035 13.3595 30.9306 13.6853L29.7786 15.9866ZM21.5171 36.854L19.143 32.1632L17.9779 32.7219C17.3371 33.0292 16.672 33.0626 15.9827 32.8219C15.2933 32.5812 14.786 32.1386 14.4607 31.494L13.2737 29.1486C12.9473 28.5036 12.8961 27.8417 13.1201 27.163C13.3442 26.4843 13.7764 25.9918 14.4169 25.6856L19.0773 23.4506L21.8796 19.0462C22.1493 18.6254 22.5423 18.4369 23.0587 18.4807C23.5751 18.5245 23.9474 18.771 24.1757 19.2202L29.1909 29.1296C29.4184 29.5791 29.3923 30.0167 29.1125 30.4424C28.8328 30.868 28.4397 31.0565 27.9334 31.0078L22.6383 30.4869L21.4732 31.0456L23.8473 35.7365L21.5171 36.854ZM29.8367 27.5447L25.8601 19.6875C26.6218 19.9052 27.3338 20.2744 27.9961 20.7953C28.6583 21.3161 29.1917 21.977 29.596 22.778C30.0016 23.5793 30.2147 24.3943 30.2354 25.2228C30.2561 26.0514 30.1232 26.8253 29.8367 27.5447Z" fill="#408A7E"/>
<defs>
<clipPath id="clip0_387_248">
<rect width="50" height="50" fill="white"/>
</clipPath>
</defs>
</svg>
