<svg width="28" height="28" viewBox="0 0 28 28" fill="none" xmlns="http://www.w3.org/2000/svg">
<path d="M7.00033 24.5002C6.35866 24.5002 5.80955 24.2719 5.35299 23.8153C4.89566 23.358 4.66699 22.8085 4.66699 22.1668V11.6668C4.66699 11.2974 4.74983 10.9474 4.91549 10.6168C5.08038 10.2863 5.30866 10.0141 5.60033 9.80016L12.6003 4.55016C12.8142 4.39461 13.0378 4.27794 13.2712 4.20016C13.5045 4.12238 13.7475 4.0835 14.0003 4.0835C14.2531 4.0835 14.4962 4.12238 14.7295 4.20016C14.9628 4.27794 15.1864 4.39461 15.4003 4.55016L22.4003 9.80016C22.692 10.0141 22.9207 10.2863 23.0863 10.6168C23.2512 10.9474 23.3337 11.2974 23.3337 11.6668V22.1668C23.3337 22.8085 23.1054 23.358 22.6488 23.8153C22.1915 24.2719 21.642 24.5002 21.0003 24.5002H16.3337V16.3335H11.667V24.5002H7.00033Z" fill="#408A7E"/>
</svg>
